umbra-12.ufo
<glyph name="exclam" format="1">
  <advance width="291"/>
  <unicode hex="0021"/>
  <outline>
    <contour>
      <point x="-328" y="469" type="line"/>
      <point x="-358" y="749" type="line"/>
      <point x="-198" y="749" type="line"/>
      <point x="-228" y="469" type="line"/>
    </contour>
    <contour>
      <point x="-278" y="221" type="line"/>
      <point x="-383" y="326" type="line"/>
      <point x="-278" y="432" type="line"/>
      <point x="-172" y="326" type="line"/>
    </contour>
  </outline>
</glyph>
<glyph name="percent" format="1">
  <advance width="641"/>
  <unicode hex="0025"/>
  <outline>
    <contour>
      <point x="-323" y="249" type="line"/>
      <point x="-13" y="749" type="line"/>
      <point x="117" y="749" type="line"/>
      <point x="-193" y="249" type="line"/>
    </contour>
    <contour>
      <point x="-273" y="557" type="line"/>
      <point x="-378" y="662" type="line"/>
      <point x="-273" y="768" type="line"/>
      <point x="-167" y="662" type="line"/>
    </contour>
    <contour>
      <point x="67" y="221" type="line"/>
      <point x="-38" y="326" type="line"/>
      <point x="67" y="432" type="line"/>
      <point x="173" y="326" type="line"/>
    </contour>
  </outline>
</glyph>
<glyph name="ampersand" format="1">
  <advance width="487"/>
  <unicode hex="0026"/>
  <outline>
    <contour>
      <point x="-133" y="458" type="line"/>
      <point x="-166" y="458" type="line" smooth="yes"/>
      <point x="-214" y="458"/>
      <point x="-248" y="447"/>
      <point x="-248" y="409" type="curve" smooth="yes"/>
      <point x="-248" y="378"/>
      <point x="-221" y="359"/>
      <point x="-188" y="359" type="curve" smooth="yes"/>
      <point x="-165" y="359"/>
      <point x="-133" y="372"/>
      <point x="-133" y="403" type="curve" smooth="yes"/>
    </contour>
    <contour>
      <point x="-223" y="606" type="curve" smooth="yes"/>
      <point x="-223" y="578"/>
      <point x="-214" y="553"/>
      <point x="-166" y="553" type="curve" smooth="yes"/>
      <point x="34" y="553" type="line"/>
      <point x="34" y="458" type="line"/>
      <point x="-18" y="458" type="line"/>
      <point x="-14" y="442"/>
      <point x="-13" y="420"/>
      <point x="-13" y="376" type="curve" smooth="yes"/>
      <point x="-13" y="281"/>
      <point x="-107" y="234"/>
      <point x="-196" y="234" type="curve" smooth="yes"/>
      <point x="-283" y="234"/>
      <point x="-388" y="284"/>
      <point x="-388" y="401" type="curve" smooth="yes"/>
      <point x="-388" y="457"/>
      <point x="-357" y="496"/>
      <point x="-303" y="516" type="curve"/>
      <point x="-348" y="534"/>
      <point x="-374" y="567"/>
      <point x="-374" y="622" type="curve" smooth="yes"/>
      <point x="-374" y="719"/>
      <point x="-289" y="764"/>
      <point x="-202" y="764" type="curve" smooth="yes"/>
      <point x="-115" y="764"/>
      <point x="-55" y="714"/>
      <point x="-35" y="687" type="curve"/>
      <point x="-75" y="597" type="line"/>
      <point x="-115" y="635"/>
      <point x="-153" y="644"/>
      <point x="-181" y="644" type="curve" smooth="yes"/>
      <point x="-209" y="644"/>
      <point x="-223" y="629"/>
    </contour>
  </outline>
</glyph>
<glyph name="parenright" format="1">
  <advance width="232"/>
  <unicode hex="0029"/>
  <outline>
    <contour>
      <point x="-333" y="800" type="line"/>
      <point x="-258" y="715"/>
      <point x="-221" y="610"/>
      <point x="-221" y="505" type="curve" smooth="yes"/>
      <point x="-221" y="400"/>
      <point x="-258" y="295"/>
      <point x="-333" y="210" type="curve"/>
      <point x="-423" y="210" type="line"/>
      <point x="-373" y="285"/>
      <point x="-349" y="395"/>
      <point x="-349" y="505" type="curve" smooth="yes"/>
      <point x="-349" y="615"/>
      <point x="-373" y="725"/>
      <point x="-423" y="800" type="curve"/>
    </contour>
  </outline>
</glyph>
<glyph name="asterisk" format="1">
  <advance width="459"/>
  <unicode hex="002A"/>
  <outline>
    <contour>
      <point x="-231" y="566" type="line"/>
      <point x="-258" y="709" type="line"/>
      <point x="-128" y="709" type="line"/>
      <point x="-156" y="566" type="line"/>
      <point x="-44" y="660" type="line"/>
      <point x="21" y="548" type="line"/>
      <point x="-118" y="499" type="line"/>
      <point x="21" y="450" type="line"/>
      <point x="-44" y="338" type="line"/>
      <point x="-156" y="432" type="line"/>
      <point x="-128" y="289" type="line"/>
      <point x="-258" y="289" type="line"/>
      <point x="-231" y="432" type="line"/>
      <point x="-343" y="338" type="line"/>
      <point x="-408" y="450" type="line"/>
      <point x="-269" y="499" type="line"/>
      <point x="-408" y="548" type="line"/>
      <point x="-343" y="660" type="line"/>
    </contour>
  </outline>
</glyph>
<glyph name="one" format="1">
  <advance width="230"/>
  <unicode hex="0031"/>
  <outline>
    <contour>
      <point x="-378" y="249" type="line"/>
      <point x="-378" y="699" type="line"/>
      <point x="-238" y="779" type="line"/>
      <point x="-238" y="249" type="line"/>
    </contour>
  </outline>
</glyph>
<glyph name="two" format="1">
  <advance width="458"/>
  <unicode hex="0032"/>
  <outline>
    <contour>
      <point x="0" y="592" type="curve" smooth="yes"/>
      <point x="0" y="496"/>
      <point x="-113" y="433"/>
      <point x="-197" y="371" type="curve"/>
      <point x="-3" y="371" type="line"/>
      <point x="-3" y="251" type="line"/>
      <point x="-393" y="251" type="line"/>
      <point x="-393" y="401"/>
      <point x="-145" y="524"/>
      <point x="-145" y="594" type="curve" smooth="yes"/>
      <point x="-145" y="615"/>
      <point x="-164" y="639"/>
      <point x="-212" y="639" type="curve" smooth="yes"/>
      <point x="-260" y="639"/>
      <point x="-309" y="600"/>
      <point x="-349" y="562" type="curve"/>
      <point x="-389" y="677" type="line"/>
      <point x="-349" y="724"/>
      <point x="-289" y="759"/>
      <point x="-192" y="759" type="curve" smooth="yes"/>
      <point x="-115" y="759"/>
      <point x="0" y="719"/>
    </contour>
  </outline>
</glyph>
<glyph name="three" format="1">
  <advance width="464"/>
  <unicode hex="0033"/>
  <outline>
    <contour>
      <point x="-266" y="458" type="line"/>
      <point x="-266" y="553" type="line"/>
      <point x="-216" y="553" type="line" smooth="yes"/>
      <point x="-168" y="553"/>
      <point x="-159" y="578"/>
      <point x="-159" y="606" type="curve" smooth="yes"/>
      <point x="-159" y="629"/>
      <point x="-173" y="644"/>
      <point x="-201" y="644" type="curve" smooth="yes"/>
      <point x="-249" y="644"/>
      <point x="-297" y="605"/>
      <point x="-337" y="567" type="curve"/>
      <point x="-377" y="677" type="line"/>
      <point x="-327" y="734"/>
      <point x="-267" y="764"/>
      <point x="-200" y="764" type="curve" smooth="yes"/>
      <point x="-93" y="764"/>
      <point x="-8" y="719"/>
      <point x="-8" y="622" type="curve" smooth="yes"/>
      <point x="-8" y="567"/>
      <point x="-34" y="534"/>
      <point x="-79" y="516" type="curve"/>
      <point x="-25" y="496"/>
      <point x="6" y="457"/>
      <point x="6" y="401" type="curve" smooth="yes"/>
      <point x="6" y="274"/>
      <point x="-119" y="234"/>
      <point x="-196" y="234" type="curve" smooth="yes"/>
      <point x="-293" y="234"/>
      <point x="-363" y="269"/>
      <point x="-403" y="316" type="curve"/>
      <point x="-363" y="431" type="line"/>
      <point x="-323" y="393"/>
      <point x="-264" y="359"/>
      <point x="-216" y="359" type="curve" smooth="yes"/>
      <point x="-168" y="359"/>
      <point x="-139" y="368"/>
      <point x="-139" y="409" type="curve" smooth="yes"/>
      <point x="-139" y="447"/>
      <point x="-168" y="458"/>
      <point x="-216" y="458" type="curve" smooth="yes"/>
    </contour>
  </outline>
</glyph>
<glyph name="four" format="1">
  <advance width="490"/>
  <unicode hex="0034"/>
  <outline>
    <contour>
      <point x="-168" y="344" type="line"/>
      <point x="-245" y="344"/>
      <point x="-321" y="344"/>
      <point x="-398" y="344" type="curve"/>
      <point x="-418" y="414" type="line"/>
      <point x="-128" y="749" type="line"/>
      <point x="-28" y="749" type="line"/>
      <point x="-28" y="649"/>
      <point x="-28" y="549"/>
      <point x="-28" y="449" type="curve"/>
      <point x="42" y="449" type="line"/>
      <point x="42" y="344" type="line"/>
      <point x="-28" y="344" type="line"/>
      <point x="-28" y="249" type="line"/>
      <point x="-168" y="249" type="line"/>
    </contour>
    <contour>
      <point x="-157" y="449" type="line"/>
      <point x="-157" y="581" type="line"/>
      <point x="-271" y="449" type="line"/>
    </contour>
  </outline>
</glyph>
<glyph name="six" format="1">
  <advance width="474"/>
  <unicode hex="0036"/>
  <outline>
    <contour>
      <point x="-248" y="411" type="curve" smooth="yes"/>
      <point x="-248" y="383"/>
      <point x="-229" y="354"/>
      <point x="-181" y="354" type="curve" smooth="yes"/>
      <point x="-133" y="354"/>
      <point x="-114" y="383"/>
      <point x="-114" y="411" type="curve" smooth="yes"/>
      <point x="-114" y="439"/>
      <point x="-133" y="468"/>
      <point x="-181" y="468" type="curve" smooth="yes"/>
      <point x="-229" y="468"/>
      <point x="-248" y="439"/>
    </contour>
    <contour>
      <point x="16" y="411" type="curve" smooth="yes"/>
      <point x="16" y="304"/>
      <point x="-59" y="239"/>
      <point x="-176" y="239" type="curve" smooth="yes"/>
      <point x="-333" y="239"/>
      <point x="-388" y="364"/>
      <point x="-388" y="481" type="curve" smooth="yes"/>
      <point x="-388" y="608"/>
      <point x="-312" y="759"/>
      <point x="-175" y="759" type="curve" smooth="yes"/>
      <point x="-98" y="759"/>
      <point x="-28" y="724"/>
      <point x="12" y="677" type="curve"/>
      <point x="-29" y="571" type="line"/>
      <point x="-69" y="609"/>
      <point x="-106" y="639"/>
      <point x="-154" y="639" type="curve" smooth="yes"/>
      <point x="-222" y="639"/>
      <point x="-251" y="580"/>
      <point x="-257" y="512" type="curve"/>
      <point x="-227" y="549"/>
      <point x="-181" y="563"/>
      <point x="-146" y="563" type="curve" smooth="yes"/>
      <point x="-79" y="563"/>
      <point x="16" y="518"/>
    </contour>
  </outline>
</glyph>
<glyph name="nine" format="1">
  <advance width="474"/>
  <unicode hex="0039"/>
  <outline>
    <contour>
      <point x="-124" y="587" type="curve" smooth="yes"/>
      <point x="-124" y="615"/>
      <point x="-143" y="644"/>
      <point x="-191" y="644" type="curve" smooth="yes"/>
      <point x="-239" y="644"/>
      <point x="-258" y="615"/>
      <point x="-258" y="587" type="curve" smooth="yes"/>
      <point x="-258" y="559"/>
      <point x="-239" y="530"/>
      <point x="-191" y="530" type="curve" smooth="yes"/>
      <point x="-143" y="530"/>
      <point x="-124" y="559"/>
    </contour>
    <contour>
      <point x="-388" y="587" type="curve" smooth="yes"/>
      <point x="-388" y="694"/>
      <point x="-313" y="759"/>
      <point x="-196" y="759" type="curve" smooth="yes"/>
      <point x="-39" y="759"/>
      <point x="16" y="634"/>
      <point x="16" y="517" type="curve" smooth="yes"/>
      <point x="16" y="390"/>
      <point x="-60" y="239"/>
      <point x="-197" y="239" type="curve" smooth="yes"/>
      <point x="-274" y="239"/>
      <point x="-344" y="274"/>
      <point x="-384" y="321" type="curve"/>
      <point x="-343" y="427" type="line"/>
      <point x="-303" y="389"/>
      <point x="-266" y="359"/>
      <point x="-218" y="359" type="curve" smooth="yes"/>
      <point x="-150" y="359"/>
      <point x="-121" y="418"/>
      <point x="-115" y="486" type="curve"/>
      <point x="-145" y="449"/>
      <point x="-191" y="435"/>
      <point x="-226" y="435" type="curve" smooth="yes"/>
      <point x="-293" y="435"/>
      <point x="-388" y="480"/>
    </contour>
  </outline>
</glyph>
<glyph name="equal" format="1">
  <advance width="560"/>
  <unicode hex="003D"/>
  <outline>
    <contour>
      <point x="-338" y="359" type="line"/>
      <point x="-338" y="469" type="line"/>
      <point x="52" y="469" type="line"/>
      <point x="52" y="359" type="line"/>
    </contour>
    <contour>
      <point x="-338" y="539" type="line"/>
      <point x="-338" y="649" type="line"/>
      <point x="52" y="649" type="line"/>
      <point x="52" y="539" type="line"/>
    </contour>
  </outline>
</glyph>
<glyph name="D" format="1">
  <advance width="555"/>
  <unicode hex="0044"/>
  <outline>
    <contour>
      <point x="-378" y="249" type="curve"/>
      <point x="-378" y="749" type="line"/>
      <point x="-305" y="749"/>
      <point x="-231" y="749"/>
      <point x="-158" y="749" type="curve" smooth="yes"/>
      <point x="17" y="749"/>
      <point x="102" y="648"/>
      <point x="102" y="499" type="curve" smooth="yes"/>
      <point x="102" y="350"/>
      <point x="17" y="249"/>
      <point x="-158" y="249" type="curve" smooth="yes"/>
      <point x="-231" y="249"/>
      <point x="-305" y="249"/>
    </contour>
    <contour>
      <point x="-158" y="369" type="line" smooth="yes"/>
      <point x="-96" y="369"/>
      <point x="-43" y="406"/>
      <point x="-43" y="499" type="curve" smooth="yes"/>
      <point x="-43" y="592"/>
      <point x="-96" y="629"/>
      <point x="-158" y="629" type="curve" smooth="yes"/>
      <point x="-238" y="629" type="line"/>
      <point x="-238" y="369" type="line"/>
    </contour>
  </outline>
</glyph>
<glyph name="F" format="1">
  <advance width="450"/>
  <unicode hex="0046"/>
  <outline>
    <contour>
      <point x="-378" y="249" type="line"/>
      <point x="-378" y="749" type="line"/>
      <point x="-251" y="749"/>
      <point x="-125" y="749"/>
      <point x="2" y="749" type="curve"/>
      <point x="2" y="629" type="line"/>
      <point x="-238" y="629" type="line"/>
      <point x="-238" y="539" type="line"/>
      <point x="-28" y="539" type="line"/>
      <point x="-28" y="414" type="line"/>
      <point x="-238" y="414" type="line"/>
      <point x="-238" y="249" type="line"/>
    </contour>
  </outline>
</glyph>
<glyph name="H" format="1">
  <advance width="560"/>
  <unicode hex="0048"/>
  <outline>
    <contour>
      <point x="-378" y="249" type="line"/>
      <point x="-378" y="749" type="line"/>
      <point x="-238" y="749" type="line"/>
      <point x="-238" y="559" type="line"/>
      <point x="-48" y="559" type="line"/>
      <point x="-48" y="749" type="line"/>
      <point x="92" y="749" type="line"/>
      <point x="92" y="249" type="line"/>
      <point x="-48" y="249" type="line"/>
      <point x="-48" y="439" type="line"/>
      <point x="-238" y="439" type="line"/>
      <point x="-238" y="249" type="line"/>
    </contour>
  </outline>
</glyph>
<glyph name="K" format="1">
  <advance width="525"/>
  <unicode hex="004B"/>
  <outline>
    <contour>
      <point x="-378" y="249" type="line"/>
      <point x="-378" y="749" type="line"/>
      <point x="-238" y="749" type="line"/>
      <point x="-238" y="542" type="line"/>
      <point x="-78" y="749" type="line"/>
      <point x="92" y="749" type="line"/>
      <point x="-88" y="529" type="line"/>
      <point x="102" y="249" type="line"/>
      <point x="-78" y="249" type="line"/>
      <point x="-238" y="485" type="line"/>
      <point x="-238" y="249" type="line"/>
    </contour>
  </outline>
</glyph>
<glyph name="N" format="1">
  <advance width="590"/>
  <unicode hex="004E"/>
  <outline>
    <contour>
      <point x="-378" y="249" type="line"/>
      <point x="-378" y="749" type="line"/>
      <point x="-208" y="749" type="line"/>
      <point x="-18" y="432" type="line"/>
      <point x="-18" y="749" type="line"/>
      <point x="122" y="749" type="line"/>
      <point x="122" y="249" type="line"/>
      <point x="-48" y="249" type="line"/>
      <point x="-238" y="566" type="line"/>
      <point x="-238" y="249" type="line"/>
    </contour>
  </outline>
</glyph>
<glyph name="Q" format="1">
  <advance width="610"/>
  <unicode hex="0051"/>
  <outline>
    <contour>
      <point x="-393" y="499" type="curve" smooth="yes"/>
      <point x="-393" y="648"/>
      <point x="-293" y="769"/>
      <point x="-118" y="769" type="curve" smooth="yes"/>
      <point x="57" y="769"/>
      <point x="157" y="648"/>
      <point x="157" y="499" type="curve" smooth="yes"/>
      <point x="157" y="383"/>
      <point x="97" y="284"/>
      <point x="-12" y="246" type="curve"/>
      <point x="142" y="99" type="line"/>
      <point x="-58" y="99" type="line"/>
      <point x="-172" y="233" type="line"/>
      <point x="-313" y="255"/>
      <point x="-393" y="366"/>
    </contour>
    <contour>
      <point x="-248" y="499" type="curve" smooth="yes"/>
      <point x="-248" y="406"/>
      <point x="-180" y="354"/>
      <point x="-118" y="354" type="curve" smooth="yes"/>
      <point x="-56" y="354"/>
      <point x="12" y="406"/>
      <point x="12" y="499" type="curve" smooth="yes"/>
      <point x="12" y="592"/>
      <point x="-56" y="644"/>
      <point x="-118" y="644" type="curve" smooth="yes"/>
      <point x="-180" y="644"/>
      <point x="-248" y="592"/>
    </contour>
  </outline>
</glyph>
<glyph name="V" format="1">
  <advance width="580"/>
  <unicode hex="0056"/>
  <outline>
    <contour>
      <point x="147" y="749" type="line"/>
      <point x="-53" y="249" type="line"/>
      <point x="-213" y="249" type="line"/>
      <point x="-413" y="749" type="line"/>
      <point x="-263" y="749" type="line"/>
      <point x="-133" y="388" type="line"/>
      <point x="-3" y="749" type="line"/>
    </contour>
  </outline>
</glyph>
<glyph name="Y" format="1">
  <advance width="540"/>
  <unicode hex="0059"/>
  <outline>
    <contour>
      <point x="-83" y="429" type="line"/>
      <point x="-83" y="249" type="line"/>
      <point x="-223" y="249" type="line"/>
      <point x="-223" y="429" type="line"/>
      <point x="-413" y="749" type="line"/>
      <point x="-253" y="749" type="line"/>
      <point x="-153" y="549" type="line"/>
      <point x="-53" y="749" type="line"/>
      <point x="107" y="749" type="line"/>
    </contour>
  </outline>
</glyph>
<glyph name="Z" format="1">
  <advance width="580"/>
  <unicode hex="005A"/>
  <outline>
    <contour>
      <point x="-343" y="634" type="line"/>
      <point x="-343" y="749" type="line"/>
      <point x="147" y="749" type="line"/>
      <point x="-149" y="369" type="line"/>
      <point x="107" y="369" type="line"/>
      <point x="107" y="249" type="line"/>
      <point x="-403" y="249" type="line"/>
      <point x="-103" y="634" type="line"/>
    </contour>
  </outline>
</glyph>
<glyph name="d" format="1">
  <advance width="499"/>
  <unicode hex="0064"/>
  <outline>
    <contour>
      <point x="36" y="249" type="line"/>
      <point x="-99" y="249" type="line"/>
      <point x="-99" y="291" type="line"/>
      <point x="-130" y="259"/>
      <point x="-171" y="239"/>
      <point x="-216" y="239" type="curve" smooth="yes"/>
      <point x="-323" y="239"/>
      <point x="-388" y="324"/>
      <point x="-388" y="441" type="curve" smooth="yes"/>
      <point x="-388" y="558"/>
      <point x="-323" y="644"/>
      <point x="-216" y="644" type="curve" smooth="yes"/>
      <point x="-171" y="644"/>
      <point x="-130" y="626"/>
      <point x="-99" y="595" type="curve"/>
      <point x="-99" y="779" type="line"/>
      <point x="36" y="779" type="line"/>
    </contour>
    <contour>
      <point x="-99" y="500" type="line"/>
      <point x="-118" y="524"/>
      <point x="-147" y="539"/>
      <point x="-176" y="539" type="curve" smooth="yes"/>
      <point x="-224" y="539"/>
      <point x="-253" y="499"/>
      <point x="-253" y="441" type="curve" smooth="yes"/>
      <point x="-253" y="383"/>
      <point x="-224" y="344"/>
      <point x="-176" y="344" type="curve" smooth="yes"/>
      <point x="-147" y="344"/>
      <point x="-118" y="358"/>
      <point x="-99" y="382" type="curve"/>
    </contour>
  </outline>
</glyph>
<glyph name="n" format="1">
  <advance width="474"/>
  <unicode hex="006E"/>
  <outline>
    <contour>
      <point x="-383" y="249" type="line"/>
      <point x="-383" y="634" type="line"/>
      <point x="-248" y="634" type="line"/>
      <point x="-248" y="562" type="line"/>
      <point x="-215" y="612"/>
      <point x="-166" y="644"/>
      <point x="-121" y="644" type="curve" smooth="yes"/>
      <point x="-34" y="644"/>
      <point x="11" y="588"/>
      <point x="11" y="491" type="curve" smooth="yes"/>
      <point x="11" y="249" type="line"/>
      <point x="-124" y="249" type="line"/>
      <point x="-124" y="461" type="line" smooth="yes"/>
      <point x="-124" y="519"/>
      <point x="-143" y="539"/>
      <point x="-171" y="539" type="curve" smooth="yes"/>
      <point x="-200" y="539"/>
      <point x="-229" y="517"/>
      <point x="-248" y="489" type="curve"/>
      <point x="-248" y="249" type="line"/>
    </contour>
  </outline>
</glyph>
<glyph name="p" format="1">
  <advance width="499"/>
  <unicode hex="0070"/>
  <outline>
    <contour>
      <point x="-383" y="634" type="line"/>
      <point x="-248" y="634" type="line"/>
      <point x="-248" y="592" type="line"/>
      <point x="-217" y="624"/>
      <point x="-176" y="644"/>
      <point x="-131" y="644" type="curve" smooth="yes"/>
      <point x="-24" y="644"/>
      <point x="41" y="559"/>
      <point x="41" y="442" type="curve" smooth="yes"/>
      <point x="41" y="325"/>
      <point x="-24" y="239"/>
      <point x="-131" y="239" type="curve" smooth="yes"/>
      <point x="-176" y="239"/>
      <point x="-217" y="257"/>
      <point x="-248" y="288" type="curve"/>
      <point x="-248" y="104" type="line"/>
      <point x="-383" y="104" type="line"/>
    </contour>
    <contour>
      <point x="-248" y="383" type="line"/>
      <point x="-229" y="359"/>
      <point x="-200" y="344"/>
      <point x="-171" y="344" type="curve" smooth="yes"/>
      <point x="-123" y="344"/>
      <point x="-94" y="384"/>
      <point x="-94" y="442" type="curve" smooth="yes"/>
      <point x="-94" y="500"/>
      <point x="-123" y="539"/>
      <point x="-171" y="539" type="curve" smooth="yes"/>
      <point x="-200" y="539"/>
      <point x="-229" y="525"/>
      <point x="-248" y="501" type="curve"/>
    </contour>
  </outline>
</glyph>
<glyph name="q" format="1">
  <advance width="499"/>
  <unicode hex="0071"/>
  <outline>
    <contour>
      <point x="41" y="634" type="line"/>
      <point x="41" y="104" type="line"/>
      <point x="-94" y="104" type="line"/>
      <point x="-94" y="288" type="line"/>
      <point x="-125" y="257"/>
      <point x="-166" y="239"/>
      <point x="-211" y="239" type="curve" smooth="yes"/>
      <point x="-318" y="239"/>
      <point x="-383" y="325"/>
      <point x="-383" y="442" type="curve" smooth="yes"/>
      <point x="-383" y="559"/>
      <point x="-318" y="644"/>
      <point x="-211" y="644" type="curve" smooth="yes"/>
      <point x="-166" y="644"/>
      <point x="-125" y="624"/>
      <point x="-94" y="592" type="curve"/>
      <point x="-94" y="634" type="line"/>
    </contour>
    <contour>
      <point x="-94" y="501" type="line"/>
      <point x="-113" y="525"/>
      <point x="-142" y="539"/>
      <point x="-171" y="539" type="curve" smooth="yes"/>
      <point x="-219" y="539"/>
      <point x="-248" y="500"/>
      <point x="-248" y="442" type="curve" smooth="yes"/>
      <point x="-248" y="384"/>
      <point x="-219" y="344"/>
      <point x="-171" y="344" type="curve" smooth="yes"/>
      <point x="-142" y="344"/>
      <point x="-113" y="359"/>
      <point x="-94" y="383" type="curve"/>
    </contour>
  </outline>
</glyph>
<glyph name="s" format="1">
  <advance width="374"/>
  <unicode hex="0073"/>
  <outline>
    <contour>
      <point x="-209" y="361" type="curve" smooth="yes"/>
      <point x="-209" y="411"/>
      <point x="-377" y="407"/>
      <point x="-377" y="527" type="curve" smooth="yes"/>
      <point x="-377" y="624"/>
      <point x="-302" y="649"/>
      <point x="-225" y="649" type="curve" smooth="yes"/>
      <point x="-188" y="649"/>
      <point x="-138" y="634"/>
      <point x="-88" y="587" type="curve"/>
      <point x="-128" y="497" type="line"/>
      <point x="-168" y="535"/>
      <point x="-196" y="549"/>
      <point x="-214" y="549" type="curve" smooth="yes"/>
      <point x="-232" y="549"/>
      <point x="-242" y="540"/>
      <point x="-242" y="527" type="curve" smooth="yes"/>
      <point x="-242" y="477"/>
      <point x="-74" y="475"/>
      <point x="-74" y="371" type="curve" smooth="yes"/>
      <point x="-74" y="274"/>
      <point x="-159" y="234"/>
      <point x="-236" y="234" type="curve" smooth="yes"/>
      <point x="-303" y="234"/>
      <point x="-353" y="249"/>
      <point x="-403" y="296" type="curve"/>
      <point x="-363" y="386" type="line"/>
      <point x="-323" y="348"/>
      <point x="-274" y="334"/>
      <point x="-256" y="334" type="curve" smooth="yes"/>
      <point x="-228" y="334"/>
      <point x="-209" y="340"/>
    </contour>
  </outline>
</glyph>
<glyph name="u" format="1">
  <advance width="474"/>
  <unicode hex="0075"/>
  <outline>
    <contour>
      <point x="11" y="634" type="line"/>
      <point x="11" y="249" type="line"/>
      <point x="-124" y="249" type="line"/>
      <point x="-124" y="321" type="line"/>
      <point x="-157" y="271"/>
      <point x="-206" y="239"/>
      <point x="-251" y="239" type="curve" smooth="yes"/>
      <point x="-338" y="239"/>
      <point x="-383" y="295"/>
      <point x="-383" y="392" type="curve" smooth="yes"/>
      <point x="-383" y="634" type="line"/>
      <point x="-248" y="634" type="line"/>
      <point x="-248" y="422" type="line" smooth="yes"/>
      <point x="-248" y="364"/>
      <point x="-229" y="344"/>
      <point x="-201" y="344" type="curve" smooth="yes"/>
      <point x="-172" y="344"/>
      <point x="-143" y="366"/>
      <point x="-124" y="394" type="curve"/>
      <point x="-124" y="634" type="line"/>
    </contour>
  </outline>
</glyph>
<glyph name="y" format="1">
  <advance width="470"/>
  <unicode hex="0079"/>
  <outline>
    <contour>
      <point x="-243" y="280" type="line"/>
      <point x="-413" y="634" type="line"/>
      <point x="-258" y="634" type="line"/>
      <point x="-184" y="431" type="line"/>
      <point x="-103" y="634" type="line"/>
      <point x="37" y="634" type="line"/>
      <point x="-183" y="104" type="line"/>
      <point x="-313" y="104" type="line"/>
    </contour>
  </outline>
</glyph>
<glyph name="quotedblleft" format="1">
  <advance width="430"/>
  <unicode hex="201C"/>
  <outline>
    <contour>
      <point x="-38" y="789" type="line"/>
      <point x="-38" y="529" type="line"/>
      <point x="-168" y="529" type="line"/>
      <point x="-168" y="669" type="line"/>
    </contour>
    <contour>
      <point x="-248" y="789" type="line"/>
      <point x="-248" y="529" type="line"/>
      <point x="-378" y="529" type="line"/>
      <point x="-378" y="669" type="line"/>
    </contour>
  </outline>
</glyph>
